<svg version="1" xmlns="http://www.w3.org/2000/svg" width="2800" height="2800" viewBox="0 0 2100.000000 2100.000000"><path d="M146 1050v904h1808V146H146v904zm1804 0v900H150V150h1800v900z"/><path d="M182 1050v868h1736V182H182v868zm1732 0v864H186V186h1728v864z"/><path d="M694.5 673l-177 94-.3 377.1c-.2 301.6 0 377 1 376.6.7-.3 80.5-42.6 177.3-94l176-93.5.3-94.6.2-94.6 177.8.2 177.7.3.3 188.4c.2 150 .5 188.2 1.5 187.8.6-.3 80.4-42.6 177.2-94l176-93.5.3-377.1c.1-207.4-.1-377.1-.5-377.1-.5.1-80.2 42.3-177.3 93.8l-176.5 93.8-.3 91.7-.2 91.7H872l-.2-185.5-.3-185.4-177 93.9z"/></svg>